<?xml version="1.0" encoding="UTF-8" standalone="no"?>
<svg
   xmlns:dc="http://purl.org/dc/elements/1.1/"
   xmlns:cc="http://creativecommons.org/ns#"
   xmlns:rdf="http://www.w3.org/1999/02/22-rdf-syntax-ns#"
   xmlns:svg="http://www.w3.org/2000/svg"
   xmlns="http://www.w3.org/2000/svg"
   xmlns:xlink="http://www.w3.org/1999/xlink"
   xmlns:sodipodi="http://sodipodi.sourceforge.net/DTD/sodipodi-0.dtd"
   xmlns:inkscape="http://www.inkscape.org/namespaces/inkscape"
   version="1.1"
   id="svg2"
   width="900"
   height="300"
   viewBox="0 0 900 300"
   sodipodi:docname="logo-hacktrack-return.svg"
   inkscape:version="1.0.2 (e86c870879, 2021-01-15)"
   inkscape:export-filename="/home/dindin/ORG/developers/asset/logo/logo-hacktrack-return.png"
   inkscape:export-xdpi="72.019997"
   inkscape:export-ydpi="72.019997">
  <title
     id="title2237">Logo HackTrack</title>
  <metadata
     id="metadata38">
    <rdf:RDF>
      <cc:Work
         rdf:about="">
        <dc:format>image/svg+xml</dc:format>
        <dc:type
           rdf:resource="http://purl.org/dc/dcmitype/StillImage" />
        <dc:title>Logo HackTrack</dc:title>
      </cc:Work>
    </rdf:RDF>
  </metadata>
  <defs
     id="defs6">
    <linearGradient
       inkscape:collect="always"
       id="linearGradient1250">
      <stop
         style="stop-color:#4f4f4f;stop-opacity:1;"
         offset="0"
         id="stop1246" />
      <stop
         style="stop-color:#ffffff;stop-opacity:1;"
         offset="1"
         id="stop1248" />
    </linearGradient>
    <linearGradient
       inkscape:collect="always"
       id="linearGradient1180">
      <stop
         style="stop-color:#4b4b4b;stop-opacity:1;"
         offset="0"
         id="stop1176" />
      <stop
         style="stop-color:#ffffff;stop-opacity:1;"
         offset="1"
         id="stop1178" />
    </linearGradient>
    <linearGradient
       inkscape:collect="always"
       id="linearGradient1019">
      <stop
         style="stop-color:#000000;stop-opacity:1;"
         offset="0"
         id="stop1015" />
      <stop
         style="stop-color:#ffffff;stop-opacity:1;"
         offset="1"
         id="stop1017" />
    </linearGradient>
    <filter
       inkscape:collect="always"
       style="color-interpolation-filters:sRGB"
       id="filter6232"
       x="-0.01167131"
       y="-0.02003004"
       width="1.0233426"
       height="1.04006">
      <feGaussianBlur
         inkscape:collect="always"
         stdDeviation="2.6801273"
         id="feGaussianBlur6234" />
    </filter>
    <filter
       inkscape:collect="always"
       style="color-interpolation-filters:sRGB"
       id="filter6238"
       x="-0.0084686736"
       y="-0.058179572"
       width="1.0169373"
       height="1.1163591">
      <feGaussianBlur
         inkscape:collect="always"
         stdDeviation="2.5707815"
         id="feGaussianBlur6240" />
    </filter>
    <linearGradient
       inkscape:collect="always"
       xlink:href="#linearGradient1019"
       id="linearGradient1077"
       x1="1086.1062"
       y1="658.34924"
       x2="980.42017"
       y2="469.25223"
       gradientUnits="userSpaceOnUse" />
    <radialGradient
       inkscape:collect="always"
       xlink:href="#linearGradient1250"
       id="radialGradient1174"
       cx="916.38788"
       cy="431.31082"
       fx="916.38788"
       fy="431.31082"
       r="247.89354"
       gradientTransform="matrix(0.27491992,0.40729995,-2.5373018,1.7126319,1778.6984,-694.60031)"
       gradientUnits="userSpaceOnUse" />
    <radialGradient
       inkscape:collect="always"
       xlink:href="#linearGradient1180"
       id="radialGradient1182"
       cx="499.96127"
       cy="417.28204"
       fx="499.96127"
       fy="417.28204"
       r="361.59277"
       gradientTransform="matrix(1.9209023,0,0,0.09098139,-459.70544,446.9959)"
       gradientUnits="userSpaceOnUse" />
    <radialGradient
       inkscape:collect="always"
       xlink:href="#linearGradient1180"
       id="radialGradient1184"
       cx="501.87387"
       cy="521.68488"
       fx="501.87387"
       fy="521.68488"
       r="364.27637"
       gradientTransform="matrix(2.5820045,0,0,0.11842385,-793.9667,459.90494)"
       gradientUnits="userSpaceOnUse" />
    <filter
       inkscape:collect="always"
       style="color-interpolation-filters:sRGB"
       id="filter884"
       x="-1.1384042e-06"
       width="1.0000023"
       y="-1.2686426e-06"
       height="1.0000025">
      <feGaussianBlur
         inkscape:collect="always"
         stdDeviation="0.0012292759"
         id="feGaussianBlur886" />
    </filter>
  </defs>
  <sodipodi:namedview
     id="namedview4"
     pagecolor="#ffffff"
     bordercolor="#000000"
     borderopacity="0.25"
     inkscape:showpageshadow="2"
     inkscape:pageopacity="0.0"
     inkscape:pagecheckerboard="0"
     inkscape:deskcolor="#d1d1d1"
     showgrid="true"
     inkscape:zoom="1.18"
     inkscape:cx="281.68668"
     inkscape:cy="179.65497"
     inkscape:window-width="1360"
     inkscape:window-height="714"
     inkscape:window-x="0"
     inkscape:window-y="0"
     inkscape:window-maximized="1"
     inkscape:current-layer="g8"
     inkscape:document-rotation="0"
     units="px">
    <inkscape:grid
       type="xygrid"
       id="grid124" />
  </sodipodi:namedview>
  <g
     inkscape:groupmode="layer"
     inkscape:label="Image"
     id="g8"
     transform="translate(124.65286,-138.39648)"
     style="display:inline;opacity:1;filter:url(#filter884)">
    <g
       id="g1347"
       transform="matrix(0.75007692,0,0,0.75005614,-183.16588,-53.125176)">
      <path
         id="path6236"
         style="font-size:114.008px;font-family:FreeSans;-inkscape-font-specification:FreeSans;text-align:end;text-anchor:end;opacity:0.566402;mix-blend-mode:normal;fill:#000000;fill-opacity:1;stroke-width:6.28461;stroke-linejoin:bevel;paint-order:fill markers stroke;filter:url(#filter6238)"
         d="m 819.24081,472.05914 v 83.90625 h 9.55273 v -23.48047 l 9.32422,-9.20703 20.37305,32.6875 h 11.85351 l -24.63086,-39.47851 19.26367,-20.43164 h -12.3164 l -23.86719,25.15039 v -49.14649 z m -249.8418,0.13672 v 105.91211 h 9.11914 V 472.19586 Z m -59.60547,0.17383 v 83.11133 h 9.46094 V 532.2232 l 9.23633,-9.12109 20.17773,32.37891 h 11.74414 l -24.39844,-39.10547 20.75,-20.63477 h -12.19922 l -25.31054,25.31055 v -48.68164 z m 80.87695,1.41992 v 9.43945 h 27.62305 v 74.46875 h 10.70508 v -74.46875 h 27.50781 v -9.43945 z m -281.44726,0.0312 v 83.11328 h 10.60156 v -37.85156 h 42.75391 v 37.85156 h 10.60351 V 473.82086 H 362.5787 v 35.91406 h -42.75391 v -35.91406 z m -111.68164,13.95117 -55.75,23.59961 v 7.86719 l 55.75,23.59961 v -9.00586 l -44.91992,-18.69727 44.91992,-18.35546 z m 66.58008,0 -55.75,23.59961 v 7.86719 l 55.75,23.59961 v -9.00586 L 219.2037,515.13526 264.12167,496.7798 Z m 150.67578,6.08594 c -10.71672,0 -23.37137,3.19178 -23.94141,19.38086 h 9.57617 c 0.79806,-7.29648 5.13084,-10.60352 14.02344,-10.60352 8.55057,0 13.33984,3.19221 13.33984,8.89258 v 2.50781 c 0,3.99028 -2.39542,5.70122 -9.91992,6.61329 -17.44317,2.28013 -29.64062,3.64831 -29.64062,19.60937 0,10.83073 7.52456,17.67188 19.60937,17.67188 7.5245,0 13.56653,-2.6229 20.29297,-8.7793 0.68405,6.04239 3.64825,8.7793 9.80469,8.7793 1.93813,0 3.41986,-0.22929 6.49804,-1.02735 v -7.18164 c -1.02604,0.22802 -1.48269,0.22852 -2.05273,0.22852 -3.30623,0 -5.12891,-1.7116 -5.12891,-4.67578 V 510.1607 c 0,-10.60268 -7.75396,-16.30273 -22.46093,-16.30273 z m 61.39843,0 c -16.07507,0 -26.5625,12.76813 -26.5625,32.60547 0,19.26729 10.26014,31.4668 26.44922,31.4668 14.25097,0 23.25641,-8.55154 24.39649,-23.14454 h -9.57617 c -1.59611,9.57667 -6.49727,14.36524 -14.5918,14.36524 -10.48871,0 -16.75977,-8.55054 -16.75977,-22.6875 0,-14.93502 6.15655,-23.82813 16.53125,-23.82813 7.98056,0 12.99664,4.67549 14.13672,12.99805 h 9.57617 c -1.14008,-14.25094 -9.91868,-21.77539 -23.59961,-21.77539 z m 247.52344,0.50391 c -10.8193,0 -23.59638,3.22236 -24.17187,19.5664 h 9.66992 c 0.80569,-7.36633 5.17854,-10.70508 14.15625,-10.70508 8.63241,0 13.4668,3.22358 13.4668,8.97852 v 2.53125 c 0,4.02847 -2.41715,5.75499 -10.01368,6.67578 -17.61013,2.30198 -29.92578,3.68303 -29.92578,19.79688 0,10.9344 7.59639,17.84179 19.79688,17.84179 7.59652,0 13.69745,-2.64793 20.48828,-8.86328 0.69059,6.10025 3.6831,8.86328 9.89844,8.86328 1.95668,0 3.45287,-0.23142 6.56054,-1.03711 v -7.25 c -1.0359,0.2302 -1.49676,0.23047 -2.07226,0.23047 -3.33787,0 -5.17969,-1.72813 -5.17969,-4.7207 v -35.44922 c 0,-10.7042 -7.82607,-16.45898 -22.67383,-16.45898 z m 62.19922,0 c -16.22894,0 -26.81836,12.89077 -26.81836,32.91797 0,19.45171 10.35908,31.76757 26.70313,31.76757 14.38735,0 23.47987,-8.63258 24.63086,-23.36523 h -9.66797 c -1.61139,9.66831 -6.5604,14.50195 -14.73242,14.50195 -10.58909,0 -16.91993,-8.63203 -16.91993,-22.90429 0,-15.07796 6.21546,-24.05665 16.68946,-24.05665 8.05692,0 13.12049,4.71888 14.27148,13.1211 h 9.66797 c -1.15099,-14.38737 -10.01235,-21.98242 -23.82422,-21.98242 z m -100.82617,1.29492 c -8.04948,-0.0112 -12.90683,6.13104 -14.03906,12.39844 v -10.9336 h -8.86133 v 60.31055 h 9.66797 V 526.1255 c 0,-17.91445 7.68645,-22.99767 18.44336,-18.83594 l 2.28906,-10.04297 c -2.74296,-1.10031 -5.24615,-1.58671 -7.5,-1.58984 z M 427.79549,525.7798 v 10.71679 c 0,5.7004 -6.61363,13.10938 -17.90039,13.10938 -7.41049,0 -11.74218,-3.53378 -11.74218,-9.57617 0,-13.11089 19.95192,-9.80372 29.64257,-14.25 z m 309.04493,0.80859 v 10.82031 c 0,5.75495 -6.67553,13.23633 -18.07032,13.23633 -7.48143,0 -11.85547,-3.56772 -11.85547,-9.66797 0,-13.23637 20.14239,-9.89982 29.92579,-14.38867 z" />
      <path
         id="path630"
         style="font-size:114.008px;font-family:FreeSans;-inkscape-font-specification:FreeSans;text-align:end;text-anchor:end;opacity:1;fill:url(#radialGradient1184);fill-opacity:1;stroke-width:6.28461;stroke-linejoin:bevel;paint-order:fill markers stroke"
         d="m 815.04672,468.66046 v 83.90625 h 9.55273 v -23.48047 l 9.32422,-9.20703 20.37305,32.6875 h 11.85351 l -24.63086,-39.47851 19.26367,-20.43164 h -12.3164 l -23.86719,25.15039 v -49.14649 z m -249.8418,0.13672 v 105.91211 h 9.11914 V 468.79718 Z m -59.60547,0.17383 v 83.11133 h 9.46094 v -23.25782 l 9.23633,-9.12109 20.17773,32.37891 h 11.74414 l -24.39844,-39.10547 20.75,-20.63477 h -12.19922 l -25.31054,25.31055 v -48.68164 z m 80.87695,1.41992 v 9.43945 h 27.62305 v 74.46875 h 10.70508 v -74.46875 h 27.50781 v -9.43945 z m -281.44726,0.0312 v 83.11328 H 315.6307 V 515.6839 h 42.75391 v 37.85156 h 10.60351 v -83.11328 h -10.60351 v 35.91406 H 315.6307 v -35.91406 z m -111.68164,13.95117 -55.75,23.59961 v 7.86719 l 55.75,23.59961 v -9.00581 l -44.91992,-18.69727 44.91992,-18.35546 z m 66.58008,0 -55.75,23.59961 v 7.86719 l 55.75,23.59961 v -9.00581 l -44.91797,-18.69727 44.91797,-18.35546 z m 150.67578,6.08594 c -10.71672,0 -23.37137,3.19178 -23.94141,19.38086 h 9.57617 c 0.79806,-7.29648 5.13084,-10.60352 14.02344,-10.60352 8.55057,0 13.33984,3.19221 13.33984,8.89258 v 2.50781 c 0,3.99028 -2.39542,5.70122 -9.91992,6.61329 -17.44317,2.28013 -29.64062,3.64831 -29.64062,19.60937 0,10.83073 7.52456,17.67188 19.60937,17.67188 7.5245,0 13.56653,-2.6229 20.29297,-8.7793 0.68405,6.04239 3.64825,8.7793 9.80469,8.7793 1.93813,0 3.41986,-0.22929 6.49804,-1.02735 v -7.18164 c -1.02604,0.22802 -1.48269,0.22852 -2.05273,0.22852 -3.30623,0 -5.12891,-1.7116 -5.12891,-4.67578 v -35.11329 c 0,-10.60268 -7.75396,-16.30273 -22.46093,-16.30273 z m 61.39843,0 c -16.07507,0 -26.5625,12.76813 -26.5625,32.60547 0,19.26729 10.26014,31.4668 26.44922,31.4668 14.25097,0 23.25641,-8.55154 24.39649,-23.14454 h -9.57617 c -1.59611,9.57667 -6.49727,14.36524 -14.5918,14.36524 -10.48871,0 -16.75977,-8.55054 -16.75977,-22.6875 0,-14.93502 6.15655,-23.82813 16.53125,-23.82813 7.98056,0 12.99664,4.67549 14.13672,12.99805 h 9.57617 c -1.14008,-14.25094 -9.91868,-21.77539 -23.59961,-21.77539 z m 247.52344,0.50391 c -10.8193,0 -23.59638,3.22236 -24.17187,19.5664 h 9.66992 c 0.80569,-7.36633 5.17854,-10.70508 14.15625,-10.70508 8.63241,0 13.4668,3.22358 13.4668,8.97852 v 2.53125 c 0,4.02847 -2.41715,5.75499 -10.01368,6.67578 -17.61013,2.30198 -29.92578,3.68303 -29.92578,19.79688 0,10.9344 7.59639,17.84179 19.79688,17.84179 7.59652,0 13.69745,-2.64793 20.48828,-8.86328 0.69059,6.10025 3.6831,8.86328 9.89844,8.86328 1.95668,0 3.45287,-0.23142 6.56054,-1.03711 v -7.25 c -1.0359,0.2302 -1.49676,0.23047 -2.07226,0.23047 -3.33787,0 -5.17969,-1.72813 -5.17969,-4.7207 v -35.44922 c 0,-10.7042 -7.82607,-16.45898 -22.67383,-16.45898 z m 62.19922,0 c -16.22894,0 -26.81836,12.89077 -26.81836,32.91797 0,19.45171 10.35908,31.76757 26.70313,31.76757 14.38735,0 23.47987,-8.63258 24.63086,-23.36523 h -9.66797 c -1.61139,9.66831 -6.5604,14.50195 -14.73242,14.50195 -10.58909,0 -16.91993,-8.63203 -16.91993,-22.90429 0,-15.07796 6.21546,-24.05665 16.68946,-24.05665 8.05692,0 13.12049,4.71888 14.27148,13.1211 h 9.66797 C 804.39768,498.55825 795.53632,490.9632 781.72445,490.9632 Z m -100.82617,1.29492 c -8.04948,-0.0112 -12.90683,6.13104 -14.03906,12.39844 v -10.9336 h -8.86133 v 60.31055 h 9.66797 v -31.30664 c 0,-17.91445 7.68645,-22.99767 18.44336,-18.83594 l 2.28906,-10.04297 c -2.74296,-1.10031 -5.24615,-1.58671 -7.5,-1.58984 z M 423.6014,522.38112 v 10.71679 c 0,5.7004 -6.61363,13.10938 -17.90039,13.10938 -7.41049,0 -11.74218,-3.53378 -11.74218,-9.57617 0,-13.11089 19.95192,-9.80372 29.64257,-14.25 z m 309.04493,0.80859 v 10.82031 c 0,5.75495 -6.67553,13.23633 -18.07032,13.23633 -7.48143,0 -11.85547,-3.56772 -11.85547,-9.66797 0,-13.23637 20.14239,-9.89982 29.92579,-14.38867 z" />
      <path
         id="path1356"
         style="font-size:114.008px;font-family:FreeSans;-inkscape-font-specification:FreeSans;text-align:end;text-anchor:end;display:inline;opacity:1;fill:url(#radialGradient1182);fill-opacity:1;stroke-width:6.28461;stroke-linejoin:bevel;paint-order:fill markers stroke"
         d="m 815.04672,468.66046 v 53.13672 h 16.93554 l 1.94141,-1.91797 1.19531,1.91797 h 11.83399 l -5.4336,-8.70898 19.26367,-20.43164 h -12.3164 l -23.86719,25.15039 v -49.14649 z m -249.8418,0.13672 v 53 h 9.11914 v -53 z m -59.60547,0.17383 v 52.82617 h 16.57617 l 2.1211,-2.09375 1.30468,2.09375 h 11.72266 l -5.50391,-8.82031 20.75,-20.63477 h -12.19922 l -25.31054,25.31055 v -48.68164 z m 80.87695,1.41992 v 9.43945 h 27.62305 v 41.9668 h 10.70508 v -41.9668 h 27.50781 v -9.43945 z m -281.44726,0.0312 v 51.375 h 10.60156 v -6.11323 h 42.75391 v 6.11328 h 10.60351 v -51.375 h -10.60351 v 35.91406 H 315.6307 v -35.91406 z m -111.68164,13.95117 -55.75,23.59961 v 7.86719 l 14.07226,5.95703 h 20.92774 l -24.16992,-10.06055 44.91992,-18.35546 z m 66.58008,0 -55.75,23.59961 v 7.86719 l 14.07226,5.95703 h 20.92969 l -24.16992,-10.06055 44.91797,-18.35546 z m 150.67578,6.08594 c -10.71671,0 -23.37137,3.1918 -23.94141,19.38086 h 9.57617 c 0.79806,-7.29647 5.13085,-10.60352 14.02344,-10.60352 8.55056,0 13.33984,3.19222 13.33984,8.89258 v 2.50781 c 0,3.99028 -2.39543,5.70122 -9.91992,6.61329 -8.55596,1.11841 -15.82183,2.0375 -21.0332,4.54687 h 40.41601 v -15.03516 c 0,-10.60266 -7.75398,-16.30273 -22.46093,-16.30273 z m 61.39843,0 c -15.7161,0 -26.02104,12.25497 -26.47656,31.33789 h 9.90039 c 0.35462,-14.13744 6.39764,-22.56055 16.46289,-22.56055 7.98056,0 12.99664,4.6755 14.13672,12.99805 h 9.57617 c -1.14008,-14.25092 -9.91869,-21.77539 -23.59961,-21.77539 z m 247.52344,0.50391 c -10.81929,0 -23.59638,3.22238 -24.17187,19.5664 h 9.66992 c 0.80569,-7.36632 5.17855,-10.70507 14.15625,-10.70508 8.6324,0 13.4668,3.22359 13.4668,8.97852 v 2.53125 c 0,4.02847 -2.41715,5.75499 -10.01368,6.67578 -7.59292,0.99254 -14.10443,1.88223 -19.16601,3.78711 h 38.73242 v -14.375 c 0,-10.70419 -7.82608,-16.45898 -22.67383,-16.45898 z m 62.19922,0 c -15.63883,0 -25.94196,12.04244 -26.67773,30.83398 h 9.98437 c 0.57006,-13.77543 6.61286,-21.97265 16.57813,-21.97266 8.05691,0 13.12049,4.71889 14.27148,13.1211 h 9.66797 C 804.39768,498.55826 795.53631,490.9632 781.72445,490.9632 Z m -100.82617,1.29492 c -8.04947,-0.0112 -12.90683,6.13104 -14.03906,12.39844 v -10.9336 h -8.86133 v 28.07422 h 9.7207 c 0.28459,-17.09792 7.83788,-21.98899 18.39063,-17.90625 l 2.28906,-10.04297 c -2.74296,-1.10031 -5.24615,-1.58671 -7.5,-1.58984 z" />
    </g>
    <g
       id="g1342"
       style="display:inline"
       transform="matrix(0.75007692,0,0,0.75005614,-183.16588,-53.125176)">
      <path
         id="path6230"
         style="opacity:0.566402;mix-blend-mode:normal;fill:#000000;fill-opacity:1;stroke-width:4.11591;stroke-linejoin:bevel;paint-order:fill markers stroke;filter:url(#filter6232)"
         d="m 965.98826,298.16082 c -3.25335,-0.0199 -5.7637,0.004 -7.32421,0.0645 -12.48421,0.48436 -51.48501,9.50716 -70.77909,15.42347 -19.29409,5.91631 -71.7756,27.77966 -71.7756,27.77966 l 6.45898,1.02929 c 37.7711,0.67607 58.95018,5.33334 78.88282,22.53906 17.73769,15.57012 29.11328,64.58789 29.11328,64.58789 l -10.7461,0.2461 34.69922,25.49023 -4.86133,-29.16015 c 0,0 25.4655,0.29574 47.82422,7.37695 22.35875,7.08121 59.65795,25.65552 66.26565,30.71289 6.6076,5.05736 4.7278,3.48965 12.957,13.76172 8.2293,10.27206 31.0274,66.51172 31.0274,66.51172 0,0 -10.3018,-37.16156 -16.8301,-57.25 -6.5282,-20.08844 -7.6065,-24.44815 -43.0918,-50.21289 -35.4853,-25.76476 -102.74612,-30.44727 -102.74612,-30.44727 l -15.91406,-25 c 0,0 32.9878,-15.00399 75.59548,-20.89121 33.1568,-4.58136 80.2194,6.84918 93.842,14.78379 13.6228,7.93474 48.1996,29.88828 72.918,48.70117 24.7185,18.81288 38.4727,59.62305 38.4727,59.62305 0,0 -6.915,-33.04941 -19.3145,-54.27539 -12.3995,-21.22598 -40.3126,-37.2385 -55.3262,-44.29492 -15.0134,-7.05644 -36.4179,-23.88471 -54.707,-32.27539 -18.289,-8.39069 -43.5881,-8.33341 -70.6797,-6.6875 -27.09147,1.6459 -86.36719,17.8457 -86.36719,17.8457 0,0 -22.07124,-22.25976 -27.00585,-25.96485 -4.93462,-3.70508 -29.65821,-3.13671 -29.65821,-3.13671 0,0 10.79148,-3.72909 33.46605,-10.10548 22.67458,-6.37639 114.7293,-9.43514 149.1473,-7.74023 34.4177,1.69492 58.2241,12.79322 78.4062,24.14649 20.1822,11.35326 101.6309,65.58789 101.6309,65.58789 0,0 -42.127,-36.2041 -73.7774,-59.97656 -31.6501,-23.77246 -53.0464,-31.36987 -82.2441,-39.36524 -25.5481,-6.99595 -84.78507,-9.28838 -107.55864,-9.42773 z m -80.73828,78.06054 -82.57031,22.08789 12.30859,5.97657 z m -90.96484,24.25782 c 0,0 -19.39952,5.9394 -25.59766,9.1914 -6.19811,3.25202 -8.75195,15.38672 -8.75195,15.38672 l -36.80273,18.20117 23.17187,21.16211 -4.92187,-16.74805 21.09179,-5.5039 30.80469,1.93164 c 0,0 -37.24313,7.10723 -39.95898,8.22656 -2.71586,1.11933 -1.2793,8.4668 -1.2793,8.4668 0,0 0.93896,-0.91992 2.82617,-0.91992 1.88721,0 36.28748,1.2529 40.58594,2.00195 4.29843,0.74906 16.0664,8.20508 16.0664,8.20508 0,0 -10.28805,-10.22751 -11.80468,-12.1543 -1.51664,-1.92679 -3.41268,-4.3955 1.51953,-6.24219 4.93218,-1.84666 26.25235,-2.52814 46.82617,-0.95898 20.57381,1.56917 36.50391,13.75781 36.50391,13.75781 0,0 -6.9167,-7.67812 -11.70313,-12.20312 -4.78642,-4.52502 -22.85549,-9.5427 -27.48047,-11.49024 -4.62496,-1.94754 -15.24023,-10.11719 -15.24023,-10.11719 0,1e-5 10.66334,1.25535 30.60742,5.74024 19.94407,4.48488 28.27859,3.13984 59.66211,27.75391 35.03379,27.47697 31.12446,33.1407 33.4668,55.01953 2.41908,22.59558 5.5496,43.59131 -44.89649,74.11718 -50.44609,30.52587 -167.16992,4.95508 -167.16992,4.95508 -1.8593,0.76673 84.92996,24.16339 120.14258,20.67383 27.61884,-2.73702 59.98895,-14.76402 82.42383,-30.79687 22.43486,-16.03286 27.74547,-44.80561 25.72265,-77.1543 -2.02283,-32.34869 -23.57405,-49.62668 -51.40625,-68.85547 -27.8322,-19.22878 -78.03515,-24.6875 -78.03515,-24.6875 0,0 14.09299,-6.49242 24.43554,-9.81836 10.34256,-3.32596 27.11328,0.0176 27.11328,0.0176 0,0 -6.39668,-4.35099 -13.13671,-5.75977 -6.74005,-1.40878 -40.62442,8.94922 -54.39258,8.94922 -13.76819,0 -30.39258,-10.34765 -30.39258,-10.34765 z m 71.58594,41.54882 c 0,0 31.93424,14.15801 36.82422,20.84571 4.88995,6.68768 9.04062,15.73543 18.79296,25 9.75235,9.26457 16.24457,13.82222 19.20313,25.1914 2.95856,11.36918 -0.29275,34.17953 -2.00391,42.40625 -1.71116,8.22671 -4.02343,13.85742 -4.02343,13.85743 0,0 12.5753,-20.91988 14.65429,-29.11133 2.07899,-8.19144 0.0872,-36.21987 -2.45703,-41.18164 -2.54415,-4.9618 -33.37533,-30.80125 -37.67969,-34.92579 -4.30433,-4.12451 -12.46484,-11.94335 -12.46484,-11.94335 0,0 -24.19683,-8.33335 -30.8457,-10.13868 z m 94.19531,21.3125 c 0,0 15.32129,22.96575 14.93164,34.88282 -0.38964,11.91705 0.77052,43.94962 -2.98828,54.11914 -3.75883,10.16953 -5.02698,20.12502 -14.50195,29.16601 -8.19231,7.81707 -21.49994,17.40805 -28.26172,21.8086 9.37577,-4.67135 22.30684,-11.48445 26.38867,-15.46485 6.6384,-6.47344 16.23828,-21.97656 16.23828,-21.97656 0,0 1.77957,8.53268 -0.17383,12.88477 -1.9534,4.35207 -11.5664,20.48242 -11.5664,20.48242 0,0 15.77632,-18.09611 17.72656,-28.72461 1.95024,-10.6285 -1.20169,-9.28906 -0.59961,-13.40235 0.60208,-4.11328 3.11719,-12.20181 3.11719,-16.5957 v -6.02539 c 0,0 6.22909,8.63041 5.875,15.94336 -0.35409,7.31295 0.22461,16.78711 0.22461,16.78711 0,0 4.20507,-16.31544 4.20507,-21.28711 0,-4.97166 -1.22685,-11.57011 -5.23046,-19.15039 -4.00364,-7.58027 -3.48829,-18.47461 -3.48829,-18.47461 0,0 7.88956,2.46548 12.46875,9.3418 4.57921,6.87629 7.55078,13.25 7.55078,13.25 0,0 1.2378,-8.74659 -0.4102,-13.07617 -1.64794,-4.3296 -12.30589,-14.47909 -16.373,-17.47461 -4.0671,-2.99553 -5.40397,-8.0576 -6.95508,-12.48438 -1.55108,-4.42676 -3.08984,-7.73437 -3.08984,-7.73437 0.007,0.35292 8.78262,2.65233 14.21986,6.41451 12.85996,8.89817 20.56766,20.24676 20.56766,20.24676 0,0 -4.2211,-15.32974 -12.73674,-21.88588 -8.51565,-6.55616 -22.115,-15.74514 -27.03906,-18.16211 -4.92407,-2.417 -10.09961,-3.40821 -10.09961,-3.40821 z m -30.82031,139.97657 c -5.87235,2.9258 -10.36719,5.02148 -10.36719,5.02148 0,0 2.58237,-0.33977 7.68945,-3.3418 0.69138,-0.40639 1.61904,-0.99069 2.67774,-1.67968 z M 678.44725,574.42253 c 0,0 58.87486,34.31594 70.30859,39.30469 l -19.8789,-23.48633 34.79687,-2.45507 z"
         sodipodi:nodetypes="csscccccccssscssccssscsssscscssscssscccccsccccccscsscssscsscsssscsssscscssccsssscssscccscscscscssscscsscscssscscsscccccccccccc" />
      <path
         id="path535"
         style="display:inline;opacity:1;fill:url(#linearGradient1077);fill-opacity:1;stroke-width:4.11591;stroke-linejoin:bevel;paint-order:fill markers stroke"
         d="m 962.37679,290.62531 c -3.25335,-0.0199 -5.7637,0.004 -7.32421,0.0644 -12.48421,0.48435 -51.48501,9.50716 -70.77909,15.42347 -19.29409,5.91631 -71.7756,27.77965 -71.7756,27.77965 14.42242,-0.004 25.36158,0.0925 38.12837,1.65214 23.66705,3.02478 29.47573,6.3461 47.21343,21.91622 17.73769,15.57012 29.11328,64.58789 29.11328,64.58789 l -10.7461,0.2461 34.69922,25.49023 -4.86133,-29.16015 c 0,0 25.4655,0.29574 47.82422,7.37695 22.35872,7.08121 59.65792,25.65552 66.26562,30.71289 6.6076,5.05736 4.7278,3.48965 12.957,13.76172 8.2293,10.27206 31.0274,66.51172 31.0274,66.51172 0,0 -10.3018,-37.16156 -16.8301,-57.25 -6.5282,-20.08844 -17.2324,-36.7336 -44.3401,-51.97723 C 1004.7255,406.267 941.45101,399.07843 941.45101,399.07843 l -15.91406,-25 c 0,0 32.9878,-15.004 75.59545,-20.89121 33.1568,-4.58137 80.2194,6.84918 93.842,14.78379 13.6228,7.93474 48.1996,29.88828 72.918,48.70117 24.7185,18.81288 38.4727,59.62305 38.4727,59.62305 0,0 -8.0782,-30.51878 -20.4777,-51.74476 -12.3995,-21.22598 -38.9143,-36.87259 -53.9279,-43.92901 -15.0134,-7.05644 -36.653,-26.78125 -54.9421,-35.17194 -18.289,-8.39069 -43.5881,-8.3334 -70.6797,-6.6875 -27.09144,1.6459 -86.36716,17.84571 -86.36716,17.84571 0,0 -22.07124,-22.25976 -27.00585,-25.96485 -4.93462,-3.70508 -29.65821,-3.13672 -29.65821,-3.13672 0,0 10.79148,-3.72909 33.46605,-10.10547 22.67458,-6.37639 114.72927,-9.43514 149.14727,-7.74023 34.4177,1.69491 57.2292,9.64066 77.4113,20.99392 20.1822,11.35327 104.5948,65.83535 104.5948,65.83535 0,0 -42.3529,-30.58184 -75.7464,-57.07146 -31.0113,-24.59992 -53.0464,-31.36986 -82.2441,-39.36523 -25.5481,-6.99595 -84.78504,-9.28838 -107.55861,-9.42774 z m -80.73828,78.06054 -81.9339,21.02904 -0.63641,1.05885 12.30859,5.97657 z m -90.96484,24.25782 c 0,0 -19.39952,5.9394 -25.59766,9.1914 -6.19811,3.25202 -8.75195,15.38672 -8.75195,15.38672 l -36.80273,18.20117 22.76082,21.46186 -4.51082,-17.0478 21.09179,-5.5039 33.74429,2.14674 c 1.14054,0.0726 -40.18261,6.89223 -42.89858,8.01146 -2.71586,1.11933 -1.2793,8.4668 -1.2793,8.4668 0,0 0.93896,-0.91992 2.82617,-0.91992 1.88721,0 36.28748,1.2529 40.58594,2.00195 4.29843,0.74906 18.26722,8.51873 18.26722,8.51873 0,0 -0.49721,-1.25558 -1.30526,-1.94274 -3.24172,-2.75676 -11.48622,-8.98287 -12.70024,-10.52521 -1.51663,-1.92679 -3.41268,-4.3955 1.51953,-6.24219 4.93218,-1.84666 26.25235,-2.52814 46.82617,-0.95898 20.57381,1.56917 36.50391,13.75781 36.50391,13.75781 0,0 -6.9167,-7.67812 -11.70313,-12.20312 -4.78642,-4.52502 -22.85549,-9.5427 -27.48047,-11.49024 -4.62496,-1.94754 -15.24023,-10.11719 -15.24023,-10.11719 0,10e-6 10.66334,1.25535 30.60742,5.74024 19.94407,4.48488 28.27859,3.13984 59.66211,27.75391 35.03379,27.47697 31.12446,33.1407 33.4668,55.01953 9.55544,90.61316 -132.89721,101.18958 -209.09546,76.67547 20.25306,12.4818 81.95901,24.36341 117.17163,20.87385 27.61884,-2.73702 59.3571,-16.14251 81.86663,-32.07038 19.20233,-13.58768 26.03029,-38.3625 26.27985,-73.68402 0.229,-32.41107 -23.57405,-49.62668 -51.40625,-68.85547 -27.8322,-19.22878 -78.03515,-24.6875 -78.03515,-24.6875 0,0 14.09299,-6.49242 24.43554,-9.81836 10.34256,-3.32596 27.11328,0.0176 27.11328,0.0176 0,0 -6.39668,-4.35099 -13.13671,-5.75977 -6.74005,-1.40878 -40.62442,8.94922 -54.39258,8.94922 -13.76819,0 -30.39258,-10.34765 -30.39258,-10.34765 z m 71.58594,41.54882 c 0,0 31.93424,14.15801 36.82422,20.84571 4.88995,6.68768 10.60306,14.15016 20.3554,23.41473 9.75235,9.26457 14.68213,15.40749 17.64069,26.77667 2.95856,11.36918 -0.29275,34.17953 -2.00391,42.40625 -1.71116,8.22671 -4.02343,13.85742 -4.02343,13.85743 0,0 12.5753,-20.91988 14.65429,-29.11133 2.07899,-8.19144 0.0872,-36.21987 -2.45703,-41.18164 -2.54415,-4.9618 -33.37533,-30.80125 -37.67969,-34.92579 -4.30433,-4.12451 -12.46484,-11.94335 -12.46484,-11.94335 0,0 -24.19683,-8.33335 -30.8457,-10.13868 z m 94.19531,21.3125 c 0,0 15.32129,22.96575 14.93164,34.88282 -0.38964,11.91705 0.77052,43.94962 -2.98828,54.11914 -3.75883,10.16953 -5.02698,20.12502 -14.50195,29.16601 -8.19231,7.81707 -21.49994,17.40805 -28.26172,21.8086 9.37577,-4.67135 22.30684,-11.48445 26.38867,-15.46485 6.6384,-6.47344 16.23828,-21.97656 16.23828,-21.97656 0,0 1.77957,8.53268 -0.17383,12.88477 -1.9534,4.35207 -11.5664,20.48242 -11.5664,20.48242 0,0 15.77632,-18.09611 17.72656,-28.72461 1.95024,-10.6285 -1.20169,-9.28906 -0.59961,-13.40235 0.60208,-4.11328 3.11719,-12.20181 3.11719,-16.5957 v -6.02539 c 0,0 6.22909,8.63041 5.875,15.94336 -0.35409,7.31295 0.22461,16.78711 0.22461,16.78711 0,0 4.20507,-16.31544 4.20507,-21.28711 0,-4.97166 -1.22685,-11.57011 -5.23046,-19.15039 -4.00364,-7.58027 -3.48829,-18.47461 -3.48829,-18.47461 0,0 7.88956,2.46548 12.46875,9.3418 4.57921,6.87629 7.55078,13.25 7.55078,13.25 0,0 1.23784,-8.74659 -0.41015,-13.07617 -1.64799,-4.3296 -12.30594,-14.47909 -16.37305,-17.47461 -4.0671,-2.99553 -5.40397,-8.0576 -6.95508,-12.48438 -1.55108,-4.42676 -3.08984,-7.73437 -3.08984,-7.73437 0.007,0.35292 8.78262,2.65233 14.21986,6.41451 12.85995,8.89817 20.56763,20.24676 20.56763,20.24676 0,0 -4.2211,-15.32974 -12.73671,-21.88588 -8.51565,-6.55616 -22.115,-15.74514 -27.03906,-18.16211 -4.92407,-2.417 -10.09961,-3.40821 -10.09961,-3.40821 z m -30.82031,139.97657 c -5.87235,2.9258 -10.36719,5.02148 -10.36719,5.02148 0,0 2.58237,-0.33977 7.68945,-3.3418 0.69138,-0.40639 1.61904,-0.99069 2.67774,-1.67968 z M 674.83578,566.88702 c 0,0 59.62098,33.80017 71.05471,38.78892 l -21.68746,-22.97056 32.0818,-2.45507 z"
         sodipodi:nodetypes="cssccsccccssscssccssscsssscscssscsssccccccsccccccscssccssscsscsssccssscscssccsssscssscccscscscscssscscsscscssscscsscccccccccccc" />
      <path
         id="path4322"
         style="display:inline;opacity:1;fill:url(#radialGradient1174);fill-opacity:1;stroke-width:4.11591;stroke-linejoin:bevel;paint-order:fill markers stroke"
         d="m 962.18484,290.81726 c -3.25334,-0.0199 -5.76371,0.004 -7.32421,0.0645 -12.4842,0.48435 -51.48524,9.50752 -70.7793,15.42382 -19.29407,5.91631 -76.77887,26.63298 -76.77887,26.63298 37.11247,0.21921 68.34978,-1.2443 90.34528,24.71468 17.73767,15.57011 29.11328,64.58789 29.11328,64.58789 l -10.7461,0.2461 34.69922,25.49023 -4.86133,-29.16015 c 0,0 25.46552,0.29575 47.82422,7.37695 5.42974,1.71964 11.75447,4.13255 18.29287,6.84961 l 20.6368,-10.29492 c -36.76674,-19.61791 -91.34764,-23.47852 -91.34764,-23.47852 l -15.91406,-25 c 0,0 32.98809,-15.00342 75.5956,-20.89063 33.1568,-4.58136 80.2193,6.8486 93.8418,14.78321 4.7582,2.77146 12.5066,7.59976 21.0645,13.06055 l 9.5191,-3.925 c -14.6153,-7.91114 -31.9687,-24.05419 -48.5406,-31.65704 -18.289,-8.39068 -45.1268,-8.83973 -72.2184,-7.19383 -27.09137,1.6459 -87.12238,17.22188 -87.12238,17.22188 0,0 -19.77728,-21.12961 -24.71188,-24.83469 -4.93462,-3.70508 -29.65821,-3.13672 -29.65821,-3.13672 0,0 10.79225,-3.72908 33.4668,-10.10547 22.67456,-6.37638 111.36007,-9.60946 145.77807,-7.91455 34.4176,1.69491 61.5925,12.96755 81.7746,24.3208 7.1019,3.99509 24.2891,11.99558 40.3452,22.37867 l 5.9517,-2.38648 c -6.2502,-4.94976 -13.5412,-10.83815 -19.4066,-15.24358 -31.4176,-23.8479 -49.3516,-32.42998 -81.7533,-39.38517 -25.8987,-5.55929 -84.31261,-8.40572 -107.08616,-8.54507 z m -80.73828,78.06054 -81.42709,20.64063 -0.89696,1.15042 12.06233,6.27341 z m -91.67323,23.69875 c 0,0 -18.69113,6.49848 -24.88927,9.75047 -6.1981,3.25202 -8.75195,15.38672 -8.75195,15.38672 l -37.84205,18.3343 23.94484,21.02898 -4.65552,-16.74805 21.09179,-5.5039 33.37973,2.05422 c 0,0 -39.81818,6.98465 -42.53402,8.10398 -2.71586,1.11933 -1.2793,8.4668 -1.2793,8.4668 0,0 0.93896,-0.91992 2.82617,-0.91992 1.88721,0 36.28748,1.2529 40.58594,2.00195 4.29842,0.74906 18.32185,8.32971 18.32185,8.32971 0,0 -0.2819,-1.10359 -1.66001,-2.25446 -3.69646,-3.08696 -11.06859,-8.954 -12.17335,-10.35753 -1.51663,-1.92679 -3.63945,-4.06244 1.29276,-5.90913 4.93217,-1.84665 26.25237,-2.52814 46.82617,-0.95898 20.57379,1.56917 36.50391,13.75781 36.50391,13.75781 0,0 -6.9167,-7.67813 -11.70313,-12.20312 -4.78641,-4.52502 -22.85549,-9.5427 -27.48047,-11.49024 -4.62495,-1.94754 -15.24023,-10.11719 -15.24023,-10.11719 0,10e-6 10.66336,1.25535 30.60742,5.74024 19.94405,4.48487 28.27862,3.13986 59.66211,27.75391 7.60362,5.96351 13.09925,10.76913 17.49609,15.0664 l 15.96145,-8.85359 C 940.97246,452.41111 927.769,443.06304 913.994,433.54613 886.16183,414.31737 836.85477,410.0946 836.85477,410.0946 c 0,0 15.84609,-7.57308 25.91061,-11.66399 12.55857,-5.10467 29.92382,2.16305 29.92382,2.16305 0,0 -8.17166,-5.7702 -14.78007,-7.70451 -12.49457,-3.65722 -44.01523,9.89413 -57.78337,9.89413 -13.76818,0 -28.14282,-9.9827 -28.14282,-9.9827 z m 72.29433,42.10789 c 0,0 31.93424,14.15801 36.82422,20.84571 4.83655,6.61466 10.77724,13.54549 20.30287,22.70397 l 7.50767,-2.65319 c -4.69299,-5.31197 -19.00608,-16.59316 -21.32422,-18.81446 -4.30432,-4.1245 -12.46484,-11.94335 -12.46484,-11.94335 0,0 -24.19684,-8.33335 -30.8457,-10.13868 z m 94.19531,21.3125 c 0,0 0.95722,1.44525 2.32617,3.67774 l 3.83594,-1.91406 c -3.39396,-1.21941 -6.16211,-1.76368 -6.16211,-1.76368 z M 674.64383,567.07897 c 0,0 15.32562,8.92393 31.87305,18.34571 l 20.35937,-10.15625 z"
         sodipodi:nodetypes="cssccccccsccccssccsscscssscccsscccccccccccccscsscsssscsscssccscscsscccccccccccccccccc" />
    </g>
    <text
       xml:space="preserve"
       style="font-style:italic;font-variant:normal;font-weight:normal;font-stretch:normal;font-size:74.6667px;font-family:'Comic Sans MS';-inkscape-font-specification:'Comic Sans MS Italic';text-align:end;text-anchor:end;display:inline;fill:#000000;fill-opacity:0.645167;stroke:#e10022;stroke-width:1.538;stroke-linejoin:bevel;stroke-dasharray:none;stroke-opacity:1;paint-order:fill markers stroke"
       x="646.54694"
       y="70.868851"
       id="text6352"><tspan
         sodipodi:role="line"
         id="tspan6350"
         x="646.54694"
         y="70.868851" /></text>
    <text
       xml:space="preserve"
       style="font-style:normal;font-weight:normal;font-size:40px;line-height:1.25;font-family:sans-serif;fill:#000000;fill-opacity:1;stroke:none"
       x="267.63867"
       y="726.70642"
       id="text900"><tspan
         sodipodi:role="line"
         id="tspan898"
         x="267.63867"
         y="726.70642" /></text>
    <text
       xml:space="preserve"
       style="font-style:normal;font-weight:normal;font-size:40px;line-height:1.25;font-family:sans-serif;fill:#ffffff;fill-opacity:1;stroke:none"
       x="513.4339"
       y="1094.2822"
       id="text1756"><tspan
         sodipodi:role="line"
         id="tspan1754"
         x="513.4339"
         y="1094.2822" /></text>
  </g>
</svg>
